<svg id="Layer_1" data-name="Layer 1" xmlns="http://www.w3.org/2000/svg" viewBox="0 0 1024 1024"><defs><style>.cls-1{fill:#43a1ff;}.cls-2{fill:#fff;}.cls-3{fill:#f1911f;}.cls-4{fill:#abebff;}.cls-5{fill:#2472b6;}.cls-6{fill:#e75257;}.cls-7{fill:#4ba4db;}</style></defs><rect class="cls-1" x="-1.14" y="-1.14" width="1026.27" height="1026.27" rx="513.13"/><rect class="cls-2" x="302.08" y="221.63" width="511.6" height="493.76" rx="15.1"/><rect class="cls-3" x="207.34" y="260.42" width="511.6" height="493.76" rx="18.23"/><rect class="cls-4" x="263.97" y="308.61" width="511.6" height="493.76" rx="24.9"/><path class="cls-5" d="M285.35,802.37c-13.79,0-24-12.5-20.8-25.55,68.66-283.78,118.23-370.35,154.61-368,65.39,4.14,99,296,177.73,294.51,32.52-.63,45.16-50.74,81.39-50.42,38.6.34,71.08,57.64,95.88,121.31,5.3,13.62-5,28.19-20,28.19Z"/><circle class="cls-2" cx="519.77" cy="555.49" r="75.93"/><path class="cls-6" d="M519.77,638.3a82.81,82.81,0,1,1,82.81-82.81A82.91,82.91,0,0,1,519.77,638.3Zm0-154.21a71.41,71.41,0,1,0,71.4,71.4A71.48,71.48,0,0,0,519.77,484.09Z"/><path class="cls-6" d="M506.71,524.32l31.17,31.17-31.17,31.18Z"/><circle class="cls-5" cx="655.36" cy="433.39" r="45"/><path class="cls-2" d="M909.45,476l38.63,38.64a3.06,3.06,0,0,1,0,4.35L909.45,557.6a3.08,3.08,0,0,1-5.26-2.18V478.15A3.08,3.08,0,0,1,909.45,476Z"/><path class="cls-2" d="M114.49,557.55,75.92,519a3.11,3.11,0,0,1,0-4.39L114.49,476a3.11,3.11,0,0,1,5.31,2.19v77.15A3.11,3.11,0,0,1,114.49,557.55Z"/><path class="cls-7" d="M329.76,766.94c-2.45.29-6.43,2.51-8.67,3.47-2,.85-4.82,2.05-7.64,1-1.23-.44-3.23-1.66-3.29-3.21s1.86-2.93,5.72-5.81c.84-.63,1.12-.8,1.57-1.13,2-1.5,7.21-5.3,7.38-10.49.09-2.81-1.27-6.32-4.17-7.9a8.59,8.59,0,0,0-5.81-.7,12.56,12.56,0,0,0-5,2.52,25.08,25.08,0,0,0-7.38,8,19.81,19.81,0,0,0-3,8.76,17.78,17.78,0,0,0,1.21,8.07,14.49,14.49,0,0,0,10.15,9,19.53,19.53,0,0,0,7.29.61c5.6-.57,9.18-3.31,11.54-5.11,3.23-2.48,3.36-3.73,3.3-4.34A3.37,3.37,0,0,0,330.8,767,2.41,2.41,0,0,0,329.76,766.94ZM307,761.47c-1.19-.92.69-6.37,4.34-9.28,1.14-.91,3.43-2.43,4.34-1.74s-.25,3.93-.35,4.17a10.13,10.13,0,0,1-2.6,3.55C311.56,759.23,308,762.28,307,761.47Z"/><rect class="cls-7" x="303.31" y="724.24" width="5.14" height="14.95" rx="2.53" transform="translate(-249.62 165.68) rotate(-21.78)"/><rect class="cls-7" x="314.92" y="722.25" width="5.14" height="14.95" rx="2.53" transform="matrix(0.99, 0.14, -0.14, 0.99, 107.65, -37.91)"/><rect class="cls-7" x="294.1" y="730.57" width="5.14" height="14.95" rx="2.53" transform="translate(1060.03 961.64) rotate(128.22)"/><rect class="cls-7" x="289.58" y="740.66" width="5.14" height="14.95" rx="2.53" transform="translate(1080.39 594.1) rotate(100.27)"/><rect class="cls-7" x="325.15" y="726.44" width="5.14" height="14.95" rx="2.53" transform="translate(496.38 -51.95) rotate(36.18)"/></svg>